<mxfile host="app.diagrams.net" modified="2024-07-10T11:49:22.232Z" agent="Mozilla/5.0 (Windows NT 10.0; Win64; x64) AppleWebKit/537.36 (KHTML, like Gecko) Chrome/126.0.0.0 Safari/537.36" version="24.6.3" etag="53LvRoLhn9Nx1RtxWWz3" type="github">
  <diagram name="Page-1" id="oSconBQuwJcq_olKw7-o">
    <mxGraphModel>
      <root>
        <mxCell id="0" />
        <mxCell id="1" parent="0" />
      </root>
    </mxGraphModel>
  </diagram>
</mxfile>
